<svg xmlns="http://www.w3.org/2000/svg" viewBox="0 0 218.4 100.91"><defs><style>.a{fill:#d85b2c;}.b{fill:#d8592b;}.c{fill:#d75327;}.d{fill:#fff;}.e{fill:#d8582a;}.f{fill:#d85a2c;}</style></defs><path class="a" d="M-237.42,490.71c2.2-3.25,4.24-6.22,6.23-9.21.76-1.14,1.58-2.25,3.15-1.77s.92,1.91.94,2.92c.06,5.26,0,10.52,0,15.77,0,.91.27,2.2-1.2,2.18s-1.35-1.21-1.36-2.19c0-4.1,0-8.19,0-13-3.75,2.68-4.77,6.79-8,9.5l-7.5-10.52c0,5.56,0,9.77,0,14,0,1,.06,2.16-1.31,2.2s-1.38-1.13-1.39-2.11c0-5.42,0-10.84,0-16.26,0-.92-.32-2.08,1-2.47a2.43,2.43,0,0,1,2.91,1.26C-241.87,484.15-239.75,487.25-237.42,490.71Z" transform="translate(352 -406.09)"/><path class="b" d="M-146.77,497.25c2.32-5.54,4.32-10.35,6.35-15.14.57-1.34,1.21-3.28,3-2.28,1.63.9-.11,2.33-.53,3.35-2,5-4.27,10-6.42,15-.52,1.18-.7,2.7-2.33,2.86-1.79.17-2-1.48-2.52-2.6-2.32-5.27-4.6-10.55-6.78-15.88-.34-.82-1.87-2,0-2.77,1.35-.51,2,.48,2.53,1.69C-151.35,486.43-149.24,491.38-146.77,497.25Z" transform="translate(352 -406.09)"/><path class="c" d="M-256.09,489.91c0-2.78,0-5.57,0-8.36,0-.76-.05-1.76,1.15-1.74s1.11,1,1.12,1.78q0,8.6,0,17.2c0,.78,0,1.77-1.15,1.75s-1.11-1-1.12-1.78C-256.11,495.81-256.09,492.86-256.09,489.91Z" transform="translate(352 -406.09)"/><path class="c" d="M-140.11,436.28a100.18,100.18,0,0,1-15.64,2.55c-23.35,1.59-41.07-4.23-48.49-29.77-.27-.92-.28-1.89-1.41-2.39-3.87-1.73-9.68.61-11.51,4.59-4.8,10.51-11.92,18.3-24.35,19-11.53.65-21.66-6.46-26.4-19.38-2-5.55-5.75-3.92-9.39-4.36-3.95-.47-3.54,2.68-4.22,4.74-5.23,15.65-15.43,25.21-32.35,27.25-10.53,1.27-20.77.08-31-2-1.94-.4-4.28-2.26-5.74,1.29s1.8,3.41,3.17,4.23c9.9,6,20.08,11.48,29.86,17.61,4.13,2.58,7.84,3,12.5,1.95,16.12-3.64,32.33-6.88,48.52-10.2,4.31-.89,5.13,0,4,4.22-.78,3-1.59,5.92-2.78,10.32,8.73-6.48,16.72-6.12,25.41-.44-1-3.88-1.69-6.4-2.38-8.9-1.52-5.43-.83-6.13,4.77-5,16.83,3.49,33.69,6.87,50.48,10.52a9.59,9.59,0,0,0,7.41-1.34c12-6.83,23.61-14.43,36-20.57v-2C-135.28,436-137.29,435.63-140.11,436.28ZM-275,409.4c2.16-.06,2.25,1.33,2.17,2.92.18,1.56-.45,2.36-2.16,2.31s-2-1.22-2-2.61S-276.87,409.45-275,409.4Zm.12,7.93c1.78-.06,2.13,1.06,2.06,2.51s.18,2.64-1.77,2.71c-1.55.06-2.46-.4-2.38-2.14C-276.93,418.93-277,417.41-274.91,417.33ZM-277,428.77c-.08-1.57-.32-3.59,2.21-3.43,2.92.19,1.61,2.61,2,4,0,1.75.34,3.76-2.19,3.59C-277.85,432.72-276.91,430.38-277,428.77Zm2.15,14.26c-3,0-2.07-2.35-2.14-3.95s-.4-3.66,2-3.68c2.86,0,1.88,2.42,2.18,3.8C-273,440.92-272.25,443-274.84,443ZM-210,409.41c1.86.15,1.79,1.48,1.77,2.85.14,1.46-.32,2.4-2.08,2.37s-2.05-1.1-2.07-2.53C-212.38,410.44-212,409.24-210,409.41Zm0,7.93c1.86.13,1.76,1.51,1.74,2.9.14,1.45-.33,2.34-2.1,2.33s-2.06-1-2.06-2.49C-212.35,418.42-211.93,417.2-209.94,417.34Zm-.52,25.7c-2.9-.27-1.73-2.66-1.85-4.22s-.3-3.67,2.22-3.42c2.8.28,1.54,2.72,1.91,3.88C-208.19,441.32-207.94,443.27-210.46,443Zm.33-10.14c-2.5.19-2.34-1.8-2.21-3.4s-.94-3.94,1.93-4.15c2.53-.2,2.19,1.8,2.25,3.49C-208.43,430.33-207.3,432.69-210.13,432.9Z" transform="translate(352 -406.09)"/><path class="d" d="M-317.16,492.16a2.27,2.27,0,0,0,2.19,0c1.3-1.65-.34-2.87-1.27-4.3C-316.44,489.38-318.69,490.47-317.16,492.16Z" transform="translate(352 -406.09)"/><path class="d" d="M-339.35,487.79c1.41-.06,3.4.35,3.62-1.51s-1.63-1.58-3-1.66c-1,.26-2.71-.7-2.87,1.47C-341.69,487.83-340.56,487.84-339.35,487.79Z" transform="translate(352 -406.09)"/><path class="d" d="M-338.34,492.6c-1.21.11-3.23-1-3.19,1.61,0,2.16,1.78,1.24,2.87,1.5,1.5-.21,3.85.55,3.88-1.67C-334.76,492.24-336.94,492.47-338.34,492.6Z" transform="translate(352 -406.09)"/><path class="d" d="M-267.37,473h-80.26a4.36,4.36,0,0,0-4.37,4.37v25.26a4.36,4.36,0,0,0,4.37,4.37h80.26a4.36,4.36,0,0,0,4.37-4.37V477.37A4.36,4.36,0,0,0-267.37,473Zm-66.71,27.7a20.33,20.33,0,0,1-2.47.12c-11.16.25-11.16.24-11.16-10.77s0-11,11.39-10.54c6.38.24,8.31,3,5.66,8.84-.78,1.7.21,1.83.82,2.67C-326.67,495.43-328.65,499.92-334.08,500.7Zm22-2.51c-1.28-2.08-6.73-2.06-8,0-2.27,3.74-4.75,2.4-8.05,2.36,2.93-6.88,5.73-13.31,8.4-19.8.88-2.15,2.61-1.49,4.16-1.71,2-.3,3,.83,3.7,2.47,2.58,6.19,5.17,12.38,7.94,19C-307.1,500.53-309.68,502.06-312.09,498.19Zm22.46-13.48c-3.61-.65-4.06,1.31-3.87,4.21s0,5.57.06,8.35c.08,2.17,0,3.62-3,3.67-3.15.05-3.52-1.35-3.3-3.81.13-1.47,0-2.95,0-4.43a32.2,32.2,0,0,1,0-3.93c.38-3-.42-4.67-3.87-4.06-2,.35-3-.45-2.89-2.69.06-2,.88-2.55,2.68-2.53,4.78.06,9.56.07,14.34,0,1.84,0,2.58.56,2.63,2.52C-286.73,484.22-287.55,485.09-289.63,484.71Zm22,10.16c-.33,4.33-3.33,5.8-6.92,6.46a13.67,13.67,0,0,1-9.08-1.63c-1.24-.67-3.76-1-2.06-3.32,1-1.41,1.92-3.61,4.59-1.75a6.85,6.85,0,0,0,7.38.43c-2.14-2.28-4.62-2.12-6.72-2.88-3-1.09-5.38-2.76-5.26-6.3s2.25-5.61,5.63-6.59a13.17,13.17,0,0,1,9.15.93c1.05.45,3.43.66,2.1,2.83-.91,1.48-1.55,4-4.37,2.4a5.7,5.7,0,0,0-5.8-.35c1.06,2.44,3.43,2.13,5.32,2.68C-270,488.82-267.25,490.44-267.59,494.87Z" transform="translate(352 -406.09)"/><path class="b" d="M-169.66,478.94a10.81,10.81,0,0,0-10.88,11c-.06,6.64,4.58,11.49,10.95,11.43a11.27,11.27,0,0,0,11.09-11A11.16,11.16,0,0,0-169.66,478.94Zm.14,19.76c-4.8,0-8.27-3.59-8.26-8.56s3.6-8.62,8.31-8.51a8.19,8.19,0,0,1,8,8.35C-161.37,495-164.8,498.7-169.52,498.7Z" transform="translate(352 -406.09)"/><path class="e" d="M-186.56,496.34c-2.18-2.3-3-3.85.57-6.08,3.3-2.09,2.51-7.71-1-9.57-4.16-2.2-8.74-.91-13.13-.93-1.64,0-1.09,1.75-1.1,2.78-.06,4.76-.11,9.52,0,14.28,0,1.27-1,3.49,1,3.68,2.74.27,1.36-2.28,1.76-3.63s-1.13-3.64,1.3-4.09c2.18-.41,4.58-.68,6,2a47.39,47.39,0,0,0,3.21,4.36c1,1.39,2.1,2,4.16,1.07A41.18,41.18,0,0,0-186.56,496.34Zm-8.13-6.17c-2.95.71-3.73-.89-3.84-4.25-.13-3.82,1.6-4.26,4.68-4s6.93-.22,6.81,4.22S-191,490-194.69,490.17Z" transform="translate(352 -406.09)"/><path class="f" d="M-205.07,485.31c-.44-3.68-2.85-5.33-6.4-5.69-9.85-1-9.85-1-9.85,8.6v2c0,2.47-.08,4.94,0,7.41.05,1.12-.75,3,1.41,3,1.6-.05,1.44-1.68,1.26-2.72-.69-4,1.42-4.73,4.8-4.4a10.18,10.18,0,0,0,3.87-.6C-206.2,491.73-204.63,489.07-205.07,485.31Zm-9.24,5.56c-3.37.19-5.06-.73-4.17-4.28-.59-3.19.11-5.06,3.95-4.71,3.25.29,6.7.28,6.6,4.61C-208,490.39-211.13,490.68-214.31,490.87Z" transform="translate(352 -406.09)"/></svg>