<svg xmlns="http://www.w3.org/2000/svg" viewBox="0 0 219 109"><defs><style>.a{fill:#fff;}.b{fill:#d75327;}.c{fill:#252121;}.d{fill:#272323;}.e{fill:#262223;}.f{fill:#d85b2c;}.g{fill:#242021;}.h{fill:#d8592b;}.i{fill:#d8582a;}.j{fill:#d85a2c;}.k{fill:#fcf4ee;}.l{fill:#fdf4ef;}.m{fill:#fcf1ea;}.n{fill:#fefaf7;}.o{fill:#fefaf8;}.p{fill:#f6f5f5;}.q{fill:#d4d1d1;}.r{fill:#fffdfc;}</style></defs><path class="a" d="M304.4,409.21c0,23.41-.09,46.82.1,70.24,0,3.39-.67,4.06-4.08,4.05q-107.42-.19-214.84-.1c0-35.12,0-70.24-.08-105.36,0-3,.6-3.54,3.57-3.54q105.92.15,211.85,0c3,0,3.64.58,3.57,3.55-.24,9.72-.09,19.45-.09,29.18-7.19-1.68-14,1-21,1.8a62.86,62.86,0,0,1-26.47-2.59c-12.16-3.94-19.24-12.9-23.26-24.6-1.57-4.58-3.44-5.64-7.64-4.85-2.6.49-3.3,2.51-4.2,4.43-2.85,6.11-6.75,11.41-12.52,15-12.2,7.66-26.78,4.39-36-7.87a37.91,37.91,0,0,1-4.64-8.16c-1.22-3-3.47-3.6-6.38-3.55s-4,1.76-4.79,4.14c-7.83,23.14-25.22,29.91-49.16,28a95,95,0,0,1-15.71-2.31c-1.08-.27-2.54-.71-3.16.54-.83,1.69.86,2.25,1.92,2.88,10.68,6.32,21.49,12.42,32.16,18.76,3.07,1.82,6.09,1,9.15.34,14.58-3.13,29.19-6.13,43.8-9.09,1.3-.27,2.6-.54,3.91-.76,5.88-1,7.29.55,6,6.35-.35,1.6-1.15,3.11-.94,5.16,3.46,0,6.31-2.48,9.86-2.28,3.38.19,6.38,1.4,9.57,2.74.92-2.22-.25-3.82-.63-5.47-1.31-5.63.34-7.56,6-6.5,13.36,2.5,26.76,4.95,39.89,8.35,9.6,2.49,17.76,2.18,26.08-3.94,7-5.16,15-9,22.66-13.31C300.62,409.57,302.18,407.81,304.4,409.21Z" transform="translate(-85.5 -374.5)"/><path class="b" d="M304.4,409.21c-12.43,6.14-24,13.74-36,20.57a9.59,9.59,0,0,1-7.41,1.34c-16.79-3.65-33.65-7-50.48-10.52-5.6-1.17-6.29-.47-4.77,5,.69,2.5,1.34,5,2.38,8.9-8.69-5.68-16.68-6-25.41.44,1.19-4.4,2-7.36,2.78-10.32,1.09-4.18.27-5.11-4-4.22-16.19,3.32-32.4,6.56-48.52,10.2-4.66,1.05-8.37.63-12.5-1.95-9.78-6.13-20-11.64-29.86-17.61-1.37-.82-4.65-.64-3.17-4.23s3.8-1.69,5.74-1.29c10.26,2.11,20.5,3.3,31,2,16.92-2,27.12-11.6,32.35-27.25.68-2.06.27-5.21,4.22-4.74,3.64.44,7.36-1.19,9.39,4.36,4.74,12.92,14.87,20,26.4,19.38,12.43-.7,19.55-8.49,24.35-19,1.83-4,7.64-6.32,11.51-4.59,1.13.5,1.14,1.47,1.41,2.39,7.42,25.54,25.14,31.36,48.49,29.77a100.18,100.18,0,0,0,15.64-2.55c2.82-.65,4.83-.33,6.51,2Z" transform="translate(-85.5 -374.5)"/><path class="c" d="M90.29,459.05c0-11,0-11,11.39-10.54,6.38.24,8.31,3,5.66,8.84-.78,1.7.21,1.83.82,2.67,3.17,4.41,1.19,8.9-4.24,9.68a20.33,20.33,0,0,1-2.47.12C90.29,470.07,90.29,470.06,90.29,459.05Z" transform="translate(-85.5 -374.5)"/><path class="d" d="M164.32,464.06c-2.14-2.28-4.62-2.12-6.72-2.88-3-1.09-5.38-2.76-5.26-6.3s2.25-5.61,5.63-6.59a13.17,13.17,0,0,1,9.15.93c1,.45,3.43.66,2.1,2.83-.91,1.48-1.55,4-4.37,2.4a5.7,5.7,0,0,0-5.8-.35c1.06,2.44,3.43,2.13,5.32,2.68,3.59,1,6.38,2.66,6,7.09s-3.33,5.8-6.92,6.46a13.67,13.67,0,0,1-9.08-1.63c-1.24-.67-3.76-1-2.06-3.32,1-1.41,1.92-3.61,4.59-1.75A6.85,6.85,0,0,0,164.32,464.06Z" transform="translate(-85.5 -374.5)"/><path class="e" d="M109.88,469.56c2.93-6.88,5.73-13.31,8.4-19.8.88-2.15,2.61-1.49,4.16-1.71,2-.3,3,.83,3.7,2.47,2.58,6.19,5.17,12.38,7.94,19-3.18,0-5.76,1.56-8.17-2.31-1.28-2.08-6.73-2.06-8,0C115.66,470.94,113.18,469.6,109.88,469.56Z" transform="translate(-85.5 -374.5)"/><path class="f" d="M200.58,459.71c2.2-3.25,4.24-6.22,6.23-9.21.76-1.14,1.58-2.25,3.15-1.77s.92,1.91.94,2.92c.06,5.26,0,10.52,0,15.77,0,.91.27,2.2-1.2,2.18s-1.35-1.21-1.36-2.19c0-4.1,0-8.19,0-13-3.75,2.68-4.77,6.79-8,9.5l-7.5-10.52c0,5.56,0,9.77,0,14,0,1,.06,2.16-1.31,2.2s-1.38-1.13-1.39-2.11c0-5.42,0-10.84,0-16.26,0-.92-.32-2.08,1-2.47a2.43,2.43,0,0,1,2.91,1.26C196.13,453.15,198.25,456.25,200.58,459.71Z" transform="translate(-85.5 -374.5)"/><path class="g" d="M138.3,461.7a32.2,32.2,0,0,1,0-3.93c.38-3-.42-4.67-3.87-4.06-2,.35-3-.45-2.89-2.69.06-2,.88-2.55,2.68-2.53,4.78.06,9.56.07,14.34,0,1.84,0,2.58.56,2.63,2.52.06,2.21-.76,3.08-2.84,2.7-3.61-.65-4.06,1.31-3.87,4.21s0,5.57.06,8.35c.08,2.17,0,3.62-3,3.67-3.15.05-3.52-1.35-3.3-3.81C138.4,464.66,138.3,463.18,138.3,461.7Z" transform="translate(-85.5 -374.5)"/><path class="h" d="M257.46,459a10.81,10.81,0,0,1,10.88-11,11.23,11.23,0,0,1,.07,22.46C262,470.46,257.4,465.61,257.46,459Z" transform="translate(-85.5 -374.5)"/><path class="i" d="M254.29,469.21c-2.06,1-3.2.32-4.16-1.07a47.39,47.39,0,0,1-3.21-4.36c-1.43-2.68-3.83-2.41-6-2-2.43.45-.89,2.7-1.3,4.09s1,3.9-1.76,3.63c-2-.19-1-2.41-1-3.68-.14-4.76-.09-9.52,0-14.28,0-1-.54-2.79,1.1-2.78,4.39,0,9-1.27,13.13.93,3.51,1.86,4.3,7.48,1,9.57-3.54,2.23-2.75,3.78-.57,6.08A41.18,41.18,0,0,1,254.29,469.21Z" transform="translate(-85.5 -374.5)"/><path class="j" d="M216.68,459.19v-2c0-9.6,0-9.59,9.85-8.6,3.55.36,6,2,6.4,5.69s-1.13,6.42-4.87,7.53a10.18,10.18,0,0,1-3.87.6c-3.38-.33-5.49.35-4.8,4.4.18,1,.34,2.67-1.26,2.72-2.16.07-1.36-1.84-1.41-3C216.6,464.13,216.68,461.66,216.68,459.19Z" transform="translate(-85.5 -374.5)"/><path class="h" d="M291.23,466.25c2.32-5.54,4.32-10.35,6.35-15.14.57-1.34,1.21-3.28,3-2.28,1.63.9-.11,2.33-.53,3.35-2,5-4.27,10-6.42,15-.52,1.18-.7,2.7-2.33,2.86-1.79.17-2-1.48-2.52-2.6-2.32-5.27-4.6-10.55-6.78-15.88-.34-.82-1.87-2,0-2.77,1.35-.51,2,.48,2.53,1.69C286.65,455.43,288.76,460.38,291.23,466.25Z" transform="translate(-85.5 -374.5)"/><path class="b" d="M181.91,458.91c0-2.78,0-5.57,0-8.36,0-.76,0-1.76,1.15-1.74s1.11,1,1.12,1.78q0,8.6,0,17.2c0,.78,0,1.77-1.15,1.75s-1.11-1-1.12-1.78C181.89,464.81,181.91,461.86,181.91,458.91Z" transform="translate(-85.5 -374.5)"/><path class="k" d="M165.21,408.2c-.18,1.72.54,3.82-2.05,3.83-2.95,0-2.07-2.35-2.14-3.95s-.4-3.66,2-3.68C165.89,404.38,164.91,406.82,165.21,408.2Z" transform="translate(-85.5 -374.5)"/><path class="l" d="M229.82,408.28c0,2,.24,4-2.28,3.76-2.9-.27-1.73-2.66-1.85-4.22s-.3-3.67,2.22-3.42C230.71,404.68,229.45,407.12,229.82,408.28Z" transform="translate(-85.5 -374.5)"/><path class="m" d="M165.18,398.32c0,1.75.34,3.76-2.19,3.59-2.84-.19-1.9-2.53-2-4.14s-.32-3.59,2.21-3.43C166.14,394.53,164.83,397,165.18,398.32Z" transform="translate(-85.5 -374.5)"/><path class="m" d="M229.84,397.84c-.27,1.49.86,3.85-2,4.06-2.5.19-2.34-1.8-2.21-3.4s-.94-3.94,1.93-4.15C230.12,394.15,229.78,396.15,229.84,397.84Z" transform="translate(-85.5 -374.5)"/><path class="n" d="M165.14,381.32c.18,1.56-.45,2.36-2.16,2.31s-2-1.22-2-2.61.12-2.57,2-2.62C165.13,378.34,165.22,379.73,165.14,381.32Z" transform="translate(-85.5 -374.5)"/><path class="o" d="M229.8,381.26c.14,1.46-.32,2.4-2.08,2.37s-2.05-1.1-2.07-2.53c0-1.66.34-2.86,2.38-2.69C229.89,378.56,229.82,379.89,229.8,381.26Z" transform="translate(-85.5 -374.5)"/><path class="n" d="M165.15,388.84c0,1.3.18,2.64-1.77,2.71-1.55.06-2.46-.4-2.38-2.14.07-1.48,0-3,2.09-3.08C164.87,386.27,165.22,387.39,165.15,388.84Z" transform="translate(-85.5 -374.5)"/><path class="n" d="M229.8,389.24c.14,1.45-.33,2.34-2.1,2.33s-2.06-1-2.06-2.49c0-1.66.43-2.88,2.42-2.74S229.82,387.85,229.8,389.24Z" transform="translate(-85.5 -374.5)"/><path class="a" d="M99.34,464.71c-1.09-.26-2.83.66-2.87-1.5,0-2.56,2-1.5,3.19-1.61,1.4-.13,3.58-.36,3.56,1.44C103.19,465.26,100.84,464.5,99.34,464.71Z" transform="translate(-85.5 -374.5)"/><path class="p" d="M99.31,453.62c1.33.08,3.17-.07,3,1.66s-2.21,1.45-3.62,1.51c-1.21,0-2.34,0-2.21-1.7C96.6,452.92,98.27,453.88,99.31,453.62Z" transform="translate(-85.5 -374.5)"/><path class="q" d="M121.76,456.87c.93,1.43,2.57,2.65,1.27,4.3a2.27,2.27,0,0,1-2.19,0C119.31,459.47,121.56,458.38,121.76,456.87Z" transform="translate(-85.5 -374.5)"/><path class="r" d="M268.48,467.7c-4.8,0-8.27-3.59-8.26-8.56s3.6-8.62,8.31-8.51a8.19,8.19,0,0,1,8,8.35C276.63,464,273.2,467.7,268.48,467.7Z" transform="translate(-85.5 -374.5)"/><path class="n" d="M243.31,459.17c-2.95.71-3.73-.89-3.84-4.25-.13-3.82,1.6-4.26,4.68-4s6.93-.22,6.81,4.22S247,459,243.31,459.17Z" transform="translate(-85.5 -374.5)"/><path class="n" d="M219.52,455.59c-.59-3.19.11-5.06,3.95-4.71,3.25.29,6.7.28,6.6,4.61-.08,3.9-3.2,4.19-6.38,4.38C220.32,460.06,218.63,459.14,219.52,455.59Z" transform="translate(-85.5 -374.5)"/></svg>